<svg width="33" height="32" viewBox="0 0 33 32" fill="none" xmlns="http://www.w3.org/2000/svg">
<path d="M16.9144 29.3191C24.2584 29.3191 30.2119 23.3656 30.2119 16.0216C30.2119 8.67761 24.2584 2.72412 16.9144 2.72412C9.5704 2.72412 3.61691 8.67761 3.61691 16.0216C3.61691 23.3656 9.5704 29.3191 16.9144 29.3191Z" stroke="white" stroke-width="1.99462" stroke-linecap="round" stroke-linejoin="round"/>
<path d="M11.5954 4.05396H12.9252C10.3322 11.8197 10.3322 20.2237 12.9252 27.9894H11.5954" stroke="white" stroke-width="1.99462" stroke-linecap="round" stroke-linejoin="round"/>
<path d="M20.9037 4.05396C23.4967 11.8197 23.4967 20.2237 20.9037 27.9894" stroke="white" stroke-width="1.99462" stroke-linecap="round" stroke-linejoin="round"/>
<path d="M4.94669 21.3407V20.011C12.7124 22.604 21.1164 22.604 28.8822 20.011V21.3407" stroke="white" stroke-width="1.99462" stroke-linecap="round" stroke-linejoin="round"/>
<path d="M4.94669 12.0326C12.7124 9.43964 21.1164 9.43964 28.8822 12.0326" stroke="white" stroke-width="1.99462" stroke-linecap="round" stroke-linejoin="round"/>
</svg>
