<svg width="33" height="32" viewBox="0 0 33 32" fill="none" xmlns="http://www.w3.org/2000/svg">
<path d="M30.1688 24.4465C30.1688 24.9252 30.0624 25.4172 29.8364 25.8959C29.6103 26.3746 29.3178 26.8267 28.9321 27.2523C28.2806 27.9703 27.5625 28.4889 26.7513 28.8214C25.9535 29.1538 25.0892 29.3267 24.1583 29.3267C22.802 29.3267 21.3526 29.0075 19.8234 28.356C18.2941 27.7044 16.7649 26.8267 15.249 25.7231C13.7198 24.6061 12.2704 23.3694 10.8874 21.9998C9.5178 20.6168 8.28113 19.1674 7.17744 17.6515C6.08704 16.1356 5.20941 14.6196 4.57113 13.117C3.93285 11.6011 3.61371 10.1517 3.61371 8.76875C3.61371 7.86452 3.77328 7.00019 4.09242 6.20234C4.41156 5.39119 4.91686 4.64653 5.62163 3.98165C6.47267 3.14391 7.40349 2.73169 8.38751 2.73169C8.75984 2.73169 9.13217 2.81147 9.46461 2.97104C9.81034 3.13061 10.1162 3.36997 10.3555 3.7157L13.4406 8.06398C13.6799 8.39642 13.8528 8.70226 13.9725 8.99481C14.0921 9.27406 14.1586 9.5533 14.1586 9.80596C14.1586 10.1251 14.0655 10.4442 13.8794 10.7501C13.7065 11.0559 13.4539 11.3751 13.1347 11.6942L12.1241 12.7447C11.9778 12.891 11.9113 13.0638 11.9113 13.2766C11.9113 13.383 11.9246 13.4761 11.9512 13.5824C11.9911 13.6888 12.031 13.7686 12.0576 13.8484C12.297 14.2872 12.7092 14.859 13.2943 15.5505C13.8927 16.2419 14.531 16.9467 15.2224 17.6515C15.9405 18.3562 16.632 19.0078 17.3367 19.6062C18.0282 20.1913 18.6 20.5902 19.0521 20.8296C19.1186 20.8562 19.1984 20.8961 19.2915 20.936C19.3978 20.9758 19.5042 20.9891 19.6239 20.9891C19.8499 20.9891 20.0228 20.9094 20.1691 20.7631L21.1797 19.7658C21.5121 19.4333 21.8313 19.1807 22.1371 19.0211C22.443 18.835 22.7488 18.7419 23.0812 18.7419C23.3339 18.7419 23.5998 18.7951 23.8924 18.9147C24.1849 19.0344 24.4908 19.2073 24.8232 19.4333L29.2247 22.5583C29.5704 22.7976 29.8098 23.0769 29.956 23.4093C30.089 23.7417 30.1688 24.0742 30.1688 24.4465Z" stroke="white" stroke-width="1.99462" stroke-miterlimit="10"/>
</svg>
