<svg width="33" height="32" viewBox="0 0 33 32" fill="none" xmlns="http://www.w3.org/2000/svg">
<path d="M24.6927 22.4226L25.2113 26.6246C25.3443 27.7283 24.1608 28.4995 23.2167 27.9277L17.645 24.6166C17.0333 24.6166 16.435 24.5768 15.8499 24.497C16.8339 23.3401 17.419 21.8774 17.419 20.2949C17.419 16.5185 14.1478 13.4601 10.1053 13.4601C8.56284 13.4601 7.14001 13.8989 5.95654 14.6701C5.91664 14.3377 5.90334 14.0052 5.90334 13.6595C5.90334 7.60915 11.1558 2.70239 17.645 2.70239C24.1342 2.70239 29.3867 7.60915 29.3867 13.6595C29.3867 17.2498 27.5384 20.428 24.6927 22.4226Z" stroke="white" stroke-width="1.99462" stroke-linecap="round" stroke-linejoin="round"/>
<path d="M17.419 20.2951C17.419 21.8775 16.8339 23.3402 15.8499 24.4971C14.5334 26.0928 12.4457 27.1167 10.1054 27.1167L6.63471 29.1778C6.04962 29.5368 5.30495 29.0448 5.38474 28.3666L5.71718 25.7471C3.93531 24.5104 2.79173 22.529 2.79173 20.2951C2.79173 17.9547 4.0417 15.8936 5.95654 14.6702C7.14002 13.899 8.56284 13.4602 10.1054 13.4602C14.1478 13.4602 17.419 16.5186 17.419 20.2951Z" stroke="white" stroke-width="1.99462" stroke-linecap="round" stroke-linejoin="round"/>
</svg>
