<svg width="24" height="25" viewBox="0 0 24 25" fill="none" xmlns="http://www.w3.org/2000/svg">
<path d="M19.12 9.91295C18.73 9.91295 18.42 10.223 18.42 10.613V12.193C18.42 15.733 15.54 18.613 12 18.613C8.45999 18.613 5.57999 15.733 5.57999 12.193V10.603C5.57999 10.213 5.26999 9.90295 4.87999 9.90295C4.48999 9.90295 4.17999 10.213 4.17999 10.603V12.183C4.17999 16.253 7.30999 19.603 11.3 19.963V22.093C11.3 22.483 11.61 22.793 12 22.793C12.39 22.793 12.7 22.483 12.7 22.093V19.963C16.68 19.613 19.82 16.253 19.82 12.183V10.603C19.81 10.223 19.5 9.91295 19.12 9.91295Z" fill="white"/>
<path d="M12 2.79297C9.56002 2.79297 7.58002 4.77297 7.58002 7.21297V12.333C7.58002 14.773 9.56002 16.753 12 16.753C14.44 16.753 16.42 14.773 16.42 12.333V7.21297C16.42 4.77297 14.44 2.79297 12 2.79297ZM13.31 9.74297C13.24 10.003 13.01 10.173 12.75 10.173C12.7 10.173 12.65 10.163 12.6 10.153C12.21 10.043 11.8 10.043 11.41 10.153C11.09 10.243 10.78 10.053 10.7 9.74297C10.61 9.43297 10.8 9.11297 11.11 9.03297C11.7 8.87297 12.32 8.87297 12.91 9.03297C13.21 9.11297 13.39 9.43297 13.31 9.74297ZM13.84 7.80297C13.75 8.04297 13.53 8.18297 13.29 8.18297C13.22 8.18297 13.16 8.17297 13.09 8.15297C12.39 7.89297 11.61 7.89297 10.91 8.15297C10.61 8.26297 10.27 8.10297 10.16 7.80297C10.05 7.50297 10.21 7.16297 10.51 7.06297C11.47 6.71297 12.53 6.71297 13.49 7.06297C13.79 7.17297 13.95 7.50297 13.84 7.80297Z" fill="white"/>
</svg>
