<svg width="692" height="507" viewBox="0 0 692 507" fill="none" xmlns="http://www.w3.org/2000/svg">
<path d="M30.8436 439.262C35.1335 414.795 59.6259 400.185 83.1705 397.354C106.715 394.523 130.759 400.084 154.602 400.084C218.452 400.033 278.661 355.497 299.561 292.812C306.246 272.743 309.189 251.309 315.723 231.139C322.258 211.019 333.332 191.354 351.34 181.8C377.229 167.999 409.653 178.615 435.791 194.033C461.93 209.452 486.372 229.875 515.304 236.952C553.315 246.254 592.872 230.229 621.953 204.497C651.035 178.766 671.586 144.138 691.639 110.066" stroke="#2563EB" stroke-opacity="0.35" stroke-width="0.174999" stroke-miterlimit="10"/>
<path d="M29.3967 436.886C34.1356 412.52 58.5282 397.961 82.1227 395.029C92.3486 393.765 102.624 394.068 112.95 394.927C126.518 396.04 140.086 398.011 153.555 398.314C181.04 398.921 207.877 391.793 231.422 377.942C249.629 367.225 265.791 353.121 278.71 336.186C287.939 324.154 295.321 310.606 300.459 295.896C302.754 289.324 304.649 282.55 306.395 275.725C309.937 261.874 312.83 247.82 317.419 234.424C322.607 219.208 330.488 204.497 342.161 194.488C345.802 191.354 349.743 188.674 354.083 186.551C372.24 177.705 393.241 180.738 413.344 188.27C422.023 191.505 430.553 195.6 438.484 199.947C447.364 204.851 456.043 210.109 464.673 215.164C481.633 225.072 498.443 234.222 516.601 237.508C528.423 239.682 540.046 239.075 551.618 236.497C575.013 231.189 598.059 217.034 617.264 198.936C622.502 193.982 627.54 188.725 632.428 183.316C654.027 159.152 672.085 131.247 689.893 104.859" stroke="#2563EB" stroke-opacity="0.35" stroke-width="0.174999" stroke-miterlimit="10"/>
<path d="M27.9979 434.51C33.1857 410.296 57.4785 395.737 81.1229 392.703C91.3489 391.389 101.675 391.692 112.05 392.602C125.618 393.816 139.136 395.989 152.655 396.596C180.09 397.86 206.827 391.844 230.621 378.599C249.028 368.337 265.439 354.89 278.858 338.613C288.435 326.935 296.067 313.589 301.455 298.98C303.849 292.458 305.844 285.684 307.64 278.86C311.331 265.059 314.374 250.955 319.163 237.66C324.6 222.545 332.731 208.188 344.803 198.684C348.544 195.752 352.534 193.224 356.874 191.303C375.131 183.266 395.833 187.057 415.886 194.589C424.615 197.875 433.195 201.768 441.176 205.862C450.155 210.412 458.934 215.265 467.514 219.663C484.424 228.409 500.736 236.143 517.846 238.064C528.92 239.328 539.545 237.862 550.17 234.526C571.719 227.701 593.617 212.232 612.473 193.376C617.661 188.169 622.649 182.76 627.538 177.199C649.336 152.328 668.741 124.625 687.946 99.7028" stroke="#2563EB" stroke-opacity="0.35" stroke-width="0.174999" stroke-miterlimit="10"/>
<path d="M26.5527 432.084C32.1894 408.021 56.3326 393.411 80.0269 390.328C90.2528 389.013 100.628 389.266 111.004 390.227C124.572 391.49 138.09 393.866 151.559 394.776C178.944 396.647 205.631 391.844 229.675 379.156C248.231 369.349 264.992 356.609 278.859 340.938C288.836 329.665 296.717 316.521 302.304 302.013C304.798 295.542 306.843 288.819 308.789 281.994C312.63 268.193 315.872 254.089 320.811 240.895C326.447 225.881 334.877 211.878 347.298 202.829C351.139 200.049 355.13 197.724 359.519 196.005C377.826 188.776 398.278 193.326 418.331 200.858C427.061 204.144 435.69 207.935 443.821 211.727C452.9 215.973 461.729 220.27 470.309 224.162C487.169 231.745 503.082 238.064 519.094 238.57C529.47 238.924 538.997 236.598 548.674 232.554C568.378 224.314 589.129 207.48 607.636 187.765C612.724 182.356 617.712 176.694 622.65 170.982C644.649 145.352 665.45 117.902 686.001 94.4454" stroke="#2563EB" stroke-opacity="0.35" stroke-width="0.174999" stroke-miterlimit="10"/>
<path d="M25.1075 429.707C31.1931 405.746 55.2366 391.187 78.9807 388.002C89.2566 386.637 99.6322 386.89 110.008 387.951C123.576 389.316 137.094 391.844 150.512 393.107C177.848 395.585 204.485 391.945 228.728 379.863C247.484 370.511 264.544 358.479 278.861 343.415C289.236 332.546 297.367 319.605 303.153 305.197C305.747 298.726 307.892 292.054 309.888 285.229C313.878 271.479 317.27 257.324 322.458 244.231C328.344 229.369 336.974 215.619 349.844 207.126C353.734 204.548 357.825 202.374 362.165 200.857C380.571 194.437 400.724 199.745 420.727 207.328C429.456 210.664 438.186 214.254 446.367 217.792C455.495 221.735 464.474 225.577 473.004 228.813C489.814 235.182 505.328 240.136 520.243 239.277C529.92 238.721 538.35 235.536 547.13 230.734C564.988 220.977 584.542 202.879 602.799 182.355C607.787 176.693 612.775 170.88 617.763 165.016C639.961 138.678 662.109 111.481 684.057 89.4402" stroke="#2563EB" stroke-opacity="0.35" stroke-width="0.174999" stroke-miterlimit="10"/>
<path d="M23.7078 427.332C30.1925 403.522 54.1861 388.963 77.9801 385.677C88.256 384.262 98.6814 384.514 109.057 385.626C122.625 387.042 136.143 389.822 149.512 391.339C176.798 394.473 203.385 391.946 227.878 380.47C246.833 371.573 264.142 360.199 278.957 345.791C289.732 335.276 298.062 322.588 304.098 308.231C306.792 301.811 309.037 295.138 311.082 288.313C315.272 274.563 318.814 260.409 324.151 247.417C330.237 232.655 339.166 219.259 352.435 211.221C356.425 208.795 360.516 206.823 364.905 205.509C383.362 199.898 403.265 205.913 423.268 213.547C432.047 216.883 440.827 220.371 449.107 223.607C458.335 227.246 467.364 230.583 475.894 233.262C492.655 238.469 507.769 242.008 521.587 239.733C530.615 238.267 537.898 234.223 545.78 228.662C561.792 217.439 580.199 197.977 598.107 176.644C603.045 170.729 607.984 164.713 612.972 158.697C635.369 131.601 658.864 104.657 682.259 84.0824" stroke="#2563EB" stroke-opacity="0.35" stroke-width="0.174999" stroke-miterlimit="10"/>
<path d="M22.2643 424.905C29.198 401.246 53.0918 386.637 76.9357 383.351C87.2115 381.935 97.6869 382.138 108.062 383.3C121.68 384.817 135.149 387.749 148.517 389.569C175.753 393.31 202.291 391.995 226.983 381.076C246.138 372.634 263.746 361.967 279.01 348.167C290.184 338.056 298.764 325.57 304.999 311.314C307.743 304.944 310.087 298.322 312.282 291.498C316.622 277.747 320.313 263.593 325.85 250.702C332.135 236.042 341.314 222.949 355.032 215.467C359.122 213.243 363.262 211.423 367.652 210.311C386.208 205.508 405.812 212.282 425.815 219.916C434.594 223.252 443.474 226.588 451.804 229.571C461.132 232.908 470.211 235.738 478.79 237.811C495.451 241.855 510.316 243.978 522.937 240.339C531.317 237.912 537.502 233.009 544.436 226.791C558.603 214.102 575.862 193.325 593.471 171.183C598.309 165.066 603.248 158.848 608.286 152.681C630.883 124.877 655.774 98.1352 680.516 78.976" stroke="#2563EB" stroke-opacity="0.35" stroke-width="0.174999" stroke-miterlimit="10"/>
<path d="M20.8671 422.529C28.2498 399.022 52.0438 384.413 75.8877 381.026C86.2134 379.56 96.6888 379.762 107.114 380.975C120.732 382.542 134.151 385.676 147.519 387.85C174.705 392.248 201.193 392.046 226.084 381.733C245.439 373.746 263.347 363.787 279.01 350.593C290.583 340.887 299.412 328.603 305.847 314.448C308.69 308.129 311.134 301.507 313.379 294.682C317.869 280.983 321.709 266.778 327.446 253.988C333.981 239.429 343.359 226.69 357.525 219.663C361.666 217.59 365.856 215.973 370.295 215.012C388.901 211.018 408.256 218.551 428.209 226.184C437.038 229.571 445.967 232.756 454.347 235.435C463.775 238.468 472.954 240.794 481.484 242.31C498.095 245.192 512.61 245.798 524.034 240.895C531.815 237.558 536.804 231.795 542.839 224.819C555.16 210.614 571.223 188.573 588.532 165.572C593.321 159.202 598.209 152.782 603.297 146.463C626.093 117.901 652.332 91.4625 678.47 73.7186" stroke="#2563EB" stroke-opacity="0.35" stroke-width="0.174999" stroke-miterlimit="10"/>
<path d="M19.4177 420.154C27.2493 396.748 50.9436 382.189 74.8374 378.701C85.1631 377.184 95.6883 377.387 106.114 378.65C119.732 380.319 133.15 383.605 146.469 386.082C173.605 391.086 200.043 392.047 225.184 382.341C244.738 374.808 262.945 365.557 279.057 352.97C291.029 343.618 300.058 331.586 306.742 317.482C309.685 311.214 312.179 304.591 314.524 297.767C319.163 284.067 323.203 269.862 329.089 257.173C335.823 242.715 345.501 230.28 360.017 223.809C364.257 221.938 368.497 220.472 372.936 219.714C391.642 216.529 410.647 224.82 430.65 232.453C439.48 235.84 448.459 238.873 456.989 241.3C466.516 244.03 475.744 245.9 484.274 246.76C500.835 248.478 515.052 247.568 525.278 241.351C532.461 237.003 536.252 230.431 541.39 222.798C551.865 207.076 566.78 183.772 583.79 159.961C588.479 153.39 593.368 146.767 598.456 140.246C621.452 110.976 649.037 84.7397 676.572 68.4619" stroke="#2563EB" stroke-opacity="0.35" stroke-width="0.174999" stroke-miterlimit="10"/>
<path d="M18.0214 417.727C26.3019 394.473 49.8965 379.863 73.8401 376.325C84.1658 374.808 94.6911 374.96 105.166 376.274C118.784 377.993 132.203 381.532 145.472 384.312C172.558 389.974 198.896 392.097 224.286 382.947C244.04 375.87 262.546 367.327 279.107 355.346C291.478 346.398 300.756 334.569 307.64 320.566C310.683 314.348 313.277 307.776 315.721 300.951C320.56 287.302 324.7 273.047 330.836 260.459C337.819 246.102 347.696 233.97 362.661 228.055C366.951 226.336 371.241 225.123 375.73 224.516C394.486 222.141 413.242 231.189 433.245 238.823C442.124 242.21 451.153 245.142 459.732 247.265C469.36 249.641 478.638 251.056 487.168 251.36C503.629 251.916 517.596 249.388 526.625 242.008C533.21 236.649 535.803 229.319 540.043 220.927C548.673 203.739 562.441 179.07 579.102 154.502C583.691 147.677 588.579 140.852 593.717 134.23C616.913 104.253 645.845 78.2183 674.776 63.4065" stroke="#2563EB" stroke-opacity="0.35" stroke-width="0.174999" stroke-miterlimit="10"/>
<path d="M16.5762 415.351C25.2558 392.248 48.8004 377.639 72.794 373.999C83.1197 372.432 93.6948 372.584 104.17 373.999C117.788 375.819 131.207 379.509 144.475 382.593C171.512 388.861 197.8 392.147 223.44 383.604C243.393 376.982 262.248 369.146 279.208 357.772C291.978 349.228 301.506 337.601 308.589 323.7C311.732 317.532 314.426 310.96 316.92 304.136C321.908 290.487 326.248 276.231 332.533 263.745C339.716 249.539 349.842 237.66 365.256 232.251C369.646 230.734 373.986 229.672 378.475 229.268C397.331 227.701 415.787 237.457 435.74 245.141C444.619 248.579 453.748 251.309 462.378 253.179C472.055 255.252 481.483 256.162 489.963 255.859C506.374 255.252 520.042 251.056 527.874 242.513C533.81 236.042 535.306 228.004 538.598 218.905C545.382 200.2 558.003 174.267 574.314 148.839C578.854 141.762 583.692 134.786 588.88 127.961C612.275 97.2256 642.604 71.4945 672.932 58.0981" stroke="#2563EB" stroke-opacity="0.35" stroke-width="0.174999" stroke-miterlimit="10"/>
<path d="M15.1285 412.975C24.257 389.974 47.7019 375.415 71.6955 371.674C82.0711 370.056 92.6462 370.208 103.171 371.674C116.789 373.544 130.158 377.437 143.427 380.824C170.413 387.749 196.651 392.148 222.491 384.211C242.643 378.043 261.798 370.916 279.207 360.148C292.376 352.009 302.153 340.584 309.436 326.733C312.679 320.616 315.422 314.044 318.016 307.22C323.154 293.571 327.643 279.365 334.128 266.93C341.511 252.826 351.886 241.249 367.749 236.396C372.189 235.031 376.628 234.172 381.068 233.97C399.973 233.211 418.18 243.726 438.133 251.41C447.062 254.848 456.241 257.476 464.97 259.043C474.747 260.813 484.225 261.268 492.705 260.358C509.017 258.588 522.335 252.674 529.07 243.069C534.357 235.537 534.706 226.791 537.101 216.984C542.039 196.763 553.462 169.566 569.524 143.329C573.964 136.05 578.803 128.821 583.99 121.895C607.585 90.4518 639.26 64.9229 670.986 52.9926" stroke="#2563EB" stroke-opacity="0.35" stroke-width="0.174999" stroke-miterlimit="10"/>
<path d="M13.7314 410.549C23.3088 387.699 46.6539 373.089 70.6974 369.298C81.073 367.68 91.6979 367.781 102.223 369.298C115.891 371.27 129.21 375.364 142.429 379.055C169.365 386.587 195.554 392.148 221.642 384.818C241.994 379.105 261.449 372.685 279.307 362.524C292.875 354.789 302.851 343.567 310.384 329.817C313.676 323.75 316.569 317.229 319.213 310.405C324.5 296.806 329.139 282.55 335.824 270.266C343.456 256.263 354.031 244.939 370.343 240.643C374.882 239.429 379.321 238.772 383.811 238.772C402.816 238.823 420.724 250.096 440.677 257.83C449.606 261.268 458.834 263.745 467.664 265.059C477.54 266.525 487.068 266.475 495.548 264.958C511.81 262.077 524.68 254.393 530.316 243.676C534.905 235.031 534.157 225.578 535.604 215.063C538.647 193.326 548.972 164.814 564.685 137.769C569.025 130.236 573.814 122.856 579.101 115.728C602.895 83.5262 635.918 58.2501 669.04 47.7352" stroke="#2563EB" stroke-opacity="0.35" stroke-width="0.174999" stroke-miterlimit="10"/>
<path d="M12.2845 408.173C22.3109 385.475 45.5562 370.865 69.6495 367.023C80.0251 365.355 90.7 365.456 101.225 367.023C114.893 369.045 128.212 373.342 141.381 377.336C168.268 385.475 194.406 392.249 220.694 385.475C241.196 380.217 260.999 374.505 279.306 364.951C293.323 357.621 303.499 346.6 311.231 332.951C314.623 326.935 317.616 320.414 320.36 313.59C325.847 299.991 330.636 285.735 337.519 273.552C345.351 259.65 356.176 248.63 372.886 244.889C377.475 243.878 382.015 243.373 386.504 243.575C405.559 244.434 423.218 256.466 443.121 264.2C452.05 267.688 461.378 269.963 470.257 271.025C480.234 272.187 489.811 271.682 498.291 269.559C514.453 265.514 526.874 256.112 531.513 244.333C535.354 234.576 533.558 224.466 534.107 213.193C535.304 189.989 544.483 160.164 559.896 132.309C564.186 124.524 568.925 116.941 574.213 109.712C598.206 76.8029 632.575 51.7796 667.094 42.6802" stroke="#2563EB" stroke-opacity="0.35" stroke-width="0.174999" stroke-miterlimit="10"/>
<path d="M10.8907 405.796C21.3661 383.2 44.5116 368.641 68.6548 364.697C79.0803 362.979 89.7552 363.08 100.28 364.697C113.948 366.821 127.267 371.269 140.436 375.617C167.273 384.413 193.361 392.299 219.899 386.132C240.6 381.329 260.753 376.375 279.459 367.377C293.875 360.451 304.301 349.633 312.232 336.034C315.724 330.019 318.767 323.548 321.61 316.723C327.247 303.175 332.185 288.869 339.268 276.787C347.349 262.986 358.373 252.219 375.533 249.034C380.222 248.175 384.761 247.871 389.301 248.276C408.455 249.893 425.815 262.734 445.718 270.468C454.697 273.956 464.075 276.13 473.054 276.888C483.13 277.748 492.807 276.737 501.237 274.007C517.349 268.8 529.271 257.729 532.913 244.838C535.956 233.969 533.162 223.151 532.813 211.221C532.115 186.501 540.196 155.411 555.26 126.698C559.45 118.71 564.189 110.925 569.527 103.494C593.72 69.8262 629.486 45.0556 665.401 37.4222" stroke="#2563EB" stroke-opacity="0.35" stroke-width="0.174999" stroke-miterlimit="10"/>
<path d="M9.44299 403.37C20.3174 380.925 43.4131 366.315 67.5563 362.321C77.9818 360.603 88.7066 360.653 99.2817 362.372C112.95 364.546 126.268 369.247 139.387 373.847C166.174 383.25 192.163 392.299 218.95 386.738C239.851 382.391 260.303 378.144 279.458 369.753C294.273 363.231 304.898 352.615 313.079 339.118C316.67 333.153 319.813 326.733 322.706 319.908C328.492 306.36 333.63 292.054 340.863 280.073C349.144 266.373 360.368 255.909 378.026 253.28C382.815 252.572 387.404 252.471 391.943 253.078C411.148 255.505 428.258 269.053 448.111 276.838C457.09 280.376 466.568 282.348 475.596 282.853C485.723 283.359 495.5 281.943 503.93 278.607C519.992 272.288 531.365 259.549 534.059 245.445C536.304 233.514 532.513 221.988 531.265 209.3C528.721 183.063 535.605 150.71 550.42 121.187C554.511 112.947 559.25 104.96 564.637 97.4277C589.03 63.0522 626.142 38.4838 663.455 32.3164" stroke="#2563EB" stroke-opacity="0.35" stroke-width="0.174999" stroke-miterlimit="10"/>
<path d="M8.04498 400.994C19.3683 378.701 42.3643 364.091 66.5573 359.996C76.9828 358.227 87.7575 358.278 98.3326 360.047C112 362.322 125.269 367.175 138.388 372.078C165.125 382.138 191.065 392.35 218.051 387.345C239.151 383.453 259.952 379.914 279.506 372.129C294.721 366.063 305.595 355.598 313.975 342.202C317.667 336.287 320.859 329.867 323.902 323.043C329.838 309.545 335.126 295.188 342.558 283.309C351.038 269.761 362.511 259.498 380.619 257.476C385.457 256.92 390.096 257.021 394.686 257.83C413.99 261.066 430.801 275.372 450.654 283.157C459.683 286.696 469.21 288.566 478.339 288.768C488.565 288.97 498.392 287.049 506.822 283.106C522.784 275.625 533.659 261.217 535.405 246.001C536.851 233.009 532.013 220.775 529.917 207.379C525.428 179.676 531.264 145.958 545.73 115.677C549.771 107.235 554.46 99.0457 559.847 91.3112C584.439 56.1774 622.899 31.8618 661.608 27.1604" stroke="#2563EB" stroke-opacity="0.35" stroke-width="0.174999" stroke-miterlimit="10"/>
<path d="M6.59979 398.618C18.3721 376.476 41.2682 361.867 65.5112 357.671C75.9866 355.851 86.7612 355.902 97.3363 357.721C111.054 360.097 124.273 365.102 137.392 370.36C164.079 381.026 189.968 392.4 217.204 388.002C238.504 384.565 259.605 381.784 279.608 374.555C295.271 368.893 306.345 358.631 314.925 345.336C318.716 339.472 322.008 333.052 325.101 326.227C331.186 312.73 336.624 298.373 344.256 286.594C352.985 273.148 364.707 263.138 383.164 261.672C388.102 261.268 392.791 261.571 397.381 262.532C416.735 266.576 433.296 281.64 453.149 289.425C462.178 292.964 471.756 294.683 480.984 294.632C491.31 294.531 501.236 292.155 509.617 287.606C525.529 278.961 535.855 262.987 536.603 246.507C537.252 232.504 531.415 219.461 528.422 205.357C522.087 176.188 526.776 141.156 540.893 110.016C544.834 101.321 549.523 92.9289 554.96 85.0933C579.752 49.2517 619.558 25.1889 659.664 21.8524" stroke="#2563EB" stroke-opacity="0.35" stroke-width="0.174999" stroke-miterlimit="10"/>
<path d="M5.15375 396.191C17.375 374.151 40.1215 359.541 64.4642 355.295C74.9396 353.475 85.7142 353.475 96.3393 355.345C110.057 357.772 123.276 363.029 136.345 368.539C162.983 379.863 188.822 392.35 216.257 388.558C237.757 385.576 259.156 383.553 279.608 376.881C295.67 371.623 306.944 361.563 315.773 348.318C319.664 342.505 323.056 336.135 326.199 329.311C332.484 315.813 338.071 301.457 345.902 289.779C354.831 276.433 366.803 266.677 385.709 265.817C390.697 265.615 395.436 266.121 400.075 267.233C419.529 272.086 435.741 287.909 455.594 295.694C464.673 299.283 474.3 300.85 483.578 300.496C494.004 300.092 503.98 297.21 512.361 292.054C528.223 282.297 538 264.655 537.801 247.012C537.651 231.998 530.867 218.197 526.926 203.335C518.746 172.649 522.237 136.353 536.105 104.404C539.946 95.4562 544.635 86.9129 550.122 78.8751C575.113 42.2753 616.316 18.4652 657.769 16.5947" stroke="#2563EB" stroke-opacity="0.35" stroke-width="0.174999" stroke-miterlimit="10"/>
<path d="M3.75494 393.816C16.3753 371.927 39.0719 357.317 63.4146 352.97C73.89 351.099 84.7145 351.099 95.3894 353.02C109.107 355.548 122.326 360.957 135.345 366.821C161.933 378.751 187.722 392.451 215.407 389.216C237.106 386.688 258.855 385.374 279.656 379.307C296.117 374.505 307.64 364.597 316.719 351.453C320.659 345.69 324.151 339.321 327.444 332.496C333.878 319.049 339.615 304.642 347.646 293.065C356.824 279.821 368.996 270.317 388.35 270.014C393.438 269.963 398.227 270.671 402.816 271.985C422.32 277.647 438.283 294.228 458.136 302.064C467.215 305.653 476.942 307.068 486.32 306.462C496.845 305.754 506.921 302.417 515.252 296.655C531.065 285.786 540.293 266.525 539.146 247.619C538.148 231.594 530.416 217.035 525.578 201.465C515.551 169.263 517.896 131.703 531.414 98.8942C535.205 89.7442 539.844 80.9481 545.331 72.8092C570.522 35.5017 613.072 11.8938 655.971 11.4894" stroke="#2563EB" stroke-opacity="0.35" stroke-width="0.174999" stroke-miterlimit="10"/>
<path d="M2.30972 391.439C15.379 369.702 37.9758 355.092 62.3685 350.694C72.8937 348.773 83.7182 348.773 94.3931 350.745C108.111 353.323 121.33 358.934 134.299 365.102C160.837 377.689 186.576 392.501 214.461 389.872C236.359 387.8 258.407 387.294 279.657 381.733C296.518 377.386 308.29 367.629 317.568 354.587C321.609 348.874 325.2 342.505 328.542 335.68C335.127 322.233 341.063 307.826 349.244 296.351C358.622 283.207 371.042 273.905 390.846 274.259C395.984 274.36 400.822 275.27 405.461 276.787C425.065 283.258 440.728 300.546 460.582 308.433C469.71 312.022 479.487 313.336 488.915 312.426C499.49 311.415 509.666 307.573 517.997 301.204C533.76 289.172 542.439 268.345 540.344 248.225C538.548 231.189 529.819 215.821 524.082 199.543C512.16 165.875 513.408 126.95 526.626 93.3833C530.318 83.9806 534.957 75.0329 540.494 66.6918C565.884 28.6259 609.781 5.32135 654.077 6.3324" stroke="#2563EB" stroke-opacity="0.35" stroke-width="0.174999" stroke-miterlimit="10"/>
<path d="M0.910675 389.013C20.2651 358.075 58.0263 341.494 93.443 348.369C135.195 356.458 171.659 393.513 213.61 390.429C235.708 388.811 258.056 389.013 279.755 384.059C304.596 378.397 318.464 361.159 329.737 338.765C344.203 310 355.527 276.636 393.437 278.405C420.823 279.669 438.581 304.945 463.074 314.702C482.428 322.386 505.125 318.847 520.838 305.653C536.551 292.459 544.682 270.115 541.639 248.731C539.045 230.684 529.318 214.558 522.683 197.522C505.075 152.53 510.113 99.248 535.703 60.4745C561.293 21.7009 606.586 -1.40148 652.229 1.07558" stroke="#2563EB" stroke-opacity="0.35" stroke-width="0.174999" stroke-miterlimit="10"/>
<path d="M3.10654 393.462C22.7603 364.95 60.2721 349.532 95.4393 355.851C113.048 358.985 129.759 366.973 146.27 374.656C163.18 382.593 179.791 390.277 197.15 392.552C202.737 393.26 208.424 393.462 214.16 392.855C235.759 390.58 257.608 390.024 279.207 384.868C303.699 379.055 317.816 362.524 329.489 341.393C332.182 336.54 334.776 331.586 337.42 326.682C345.202 312.275 353.482 298.626 366.552 291.094C373.884 286.847 382.664 284.471 393.638 284.876C420.674 285.786 438.383 308.939 462.077 317.28C465.22 318.392 468.462 319.201 471.704 319.706C487.916 322.234 505.026 317.482 517.546 306.31C532.561 292.914 540.343 270.772 537.499 249.59C535.105 231.644 526.026 215.417 519.891 198.381C509.316 169.01 508.119 136.252 515.751 106.527C519.841 90.654 526.475 75.64 535.454 62.3953C551.916 38.2314 576.109 20.3358 603.295 10.8826C618.908 5.47349 635.519 2.89533 652.18 3.60306" stroke="#2563EB" stroke-opacity="0.35" stroke-width="0.174999" stroke-miterlimit="10"/>
<path d="M5.3519 397.91C25.2551 371.825 62.5673 357.57 97.5351 363.333C115.094 366.214 131.705 373.443 148.016 380.318C164.727 387.345 181.039 394.068 198.099 395.585C203.586 396.09 209.123 396.04 214.759 395.282C235.91 392.35 257.209 391.086 278.659 385.727C302.752 379.813 317.168 363.889 329.19 344.022C331.984 339.421 334.677 334.821 337.421 330.221C345.452 316.774 353.832 304.187 366.901 297.21C374.284 293.318 383.014 291.043 393.788 291.296C420.475 291.902 438.134 312.881 461.03 319.807C464.073 320.717 467.166 321.324 470.308 321.678C485.921 323.396 502.283 318.189 514.205 306.866C528.521 293.267 535.954 271.378 533.36 250.399C531.215 232.554 522.685 216.276 517.148 199.189C507.471 169.819 506.922 137.212 514.953 107.842C519.293 92.0693 526.127 77.2575 535.305 64.215C552.016 40.4555 576.259 22.9644 603.495 13.5111C619.108 8.10204 635.619 5.47332 652.23 6.07995" stroke="#2563EB" stroke-opacity="0.35" stroke-width="0.174999" stroke-miterlimit="10"/>
<path d="M7.59558 402.359C27.7981 378.701 64.8609 365.557 99.5792 370.764C117.038 373.342 133.599 379.914 149.761 385.879C166.322 392.047 182.334 397.708 199.045 398.517C204.433 398.77 209.87 398.517 215.357 397.607C236.058 394.018 256.809 391.945 278.159 386.435C301.903 380.318 316.569 365.153 328.989 346.55C331.833 342.253 334.676 337.956 337.47 333.709C345.75 321.273 354.23 309.646 367.299 303.277C374.682 299.688 383.412 297.514 393.987 297.666C420.325 297.918 437.883 316.825 460.081 322.285C463.024 322.992 466.017 323.447 469.06 323.649C484.075 324.559 499.688 318.898 511.061 307.422C524.729 293.672 531.763 271.985 529.418 251.208C527.473 233.414 519.591 217.085 514.553 199.999C505.824 170.628 505.824 138.173 514.304 109.156C518.893 93.4851 525.926 78.8755 535.254 66.0858C552.214 42.7307 576.507 25.644 603.743 16.1907C619.307 10.8322 635.818 8.15293 652.379 8.55735" stroke="#2563EB" stroke-opacity="0.35" stroke-width="0.174999" stroke-miterlimit="10"/>
<path d="M9.8418 406.808C30.3436 385.525 67.157 373.595 101.676 378.246C119.085 380.52 135.546 386.384 151.558 391.541C167.97 396.798 183.633 401.449 200.044 401.55C205.332 401.601 210.619 401.146 216.007 400.034C236.259 395.838 256.462 393.007 277.712 387.294C301.057 381.026 316.022 366.568 328.792 349.178C331.735 345.184 334.678 341.191 337.571 337.248C346.101 325.772 354.681 315.156 367.75 309.393C375.182 306.108 383.862 304.187 394.238 304.136C420.226 304.035 437.685 320.818 459.135 324.862C461.978 325.418 464.871 325.671 467.765 325.671C482.181 325.772 496.996 319.655 507.82 308.028C520.79 294.076 527.424 272.642 525.379 252.017C523.633 234.323 516.4 217.894 511.911 200.807C504.079 171.386 504.728 139.134 513.657 110.42C518.495 94.8498 525.778 80.4929 535.206 67.8549C552.415 44.9041 576.758 28.1714 604.044 18.8192C619.607 13.4607 636.019 10.7308 652.53 11.0342" stroke="#2563EB" stroke-opacity="0.35" stroke-width="0.174999" stroke-miterlimit="10"/>
<path d="M12.0357 411.206C32.8368 392.35 69.4008 381.582 103.67 385.626C120.979 387.648 137.441 392.805 153.254 397.051C169.465 401.449 184.829 405.089 200.941 404.432C206.129 404.229 211.317 403.572 216.555 402.308C236.358 397.455 256.012 393.866 277.112 387.952C300.108 381.531 315.322 367.731 328.491 351.655C331.534 347.914 334.577 344.274 337.57 340.685C346.3 330.17 355.079 320.616 368.148 315.409C375.63 312.427 384.21 310.556 394.436 310.455C420.076 310.152 437.485 324.66 458.136 327.289C460.88 327.643 463.673 327.693 466.417 327.592C480.185 326.935 494.301 320.313 504.527 308.534C516.848 294.379 523.084 273.147 521.288 252.775C519.742 235.183 513.157 218.703 509.166 201.566C502.283 172.144 503.53 140.043 512.858 111.684C517.946 96.2147 525.428 82.0601 535.006 69.6748C552.465 47.1285 576.857 30.8001 604.193 21.4479C619.706 16.1399 636.068 13.3596 652.529 13.4607" stroke="#2563EB" stroke-opacity="0.35" stroke-width="0.174999" stroke-miterlimit="10"/>
<path d="M14.2811 415.654C35.3815 399.225 71.696 389.569 105.716 393.108C122.926 394.827 139.337 399.275 155 402.713C171.062 406.201 186.077 408.83 201.89 407.465C206.978 407.01 212.016 406.201 217.154 404.735C236.508 399.225 255.613 394.877 276.614 388.811C299.211 382.239 314.724 369.146 328.243 354.284C331.385 350.846 334.528 347.51 337.571 344.224C346.55 334.669 355.429 326.126 368.498 321.526C375.98 318.847 384.56 317.128 394.587 316.875C419.927 316.218 437.236 328.603 457.09 329.816C459.733 329.968 462.377 329.867 465.071 329.564C478.24 328.098 491.608 321.02 501.286 309.09C512.908 294.733 518.794 273.754 517.248 253.584C515.901 236.093 509.915 219.511 506.523 202.374C500.537 172.953 502.483 141.004 512.16 112.998C517.497 97.63 525.179 83.6776 534.906 71.4945C552.565 49.3527 577.007 33.4287 604.393 24.0765C619.907 18.7686 636.218 15.9376 652.63 15.8871" stroke="#2563EB" stroke-opacity="0.35" stroke-width="0.174999" stroke-miterlimit="10"/>
<path d="M16.5256 420.103C37.8754 406.1 74.0404 397.607 107.811 400.59C124.971 402.005 141.282 405.796 156.796 408.324C172.708 410.953 187.424 412.52 202.887 410.447C207.876 409.79 212.814 408.728 217.802 407.111C236.708 400.994 255.314 395.838 276.115 389.569C298.363 382.896 314.126 370.41 328.043 356.862C331.285 353.677 334.528 350.695 337.67 347.762C346.899 339.219 355.927 331.687 368.947 327.643C376.479 325.317 385.009 323.7 394.836 323.295C419.827 322.335 437.037 332.597 456.142 332.344C458.686 332.294 461.23 332.041 463.774 331.586C476.344 329.311 488.914 321.779 498.043 309.697C508.967 295.138 514.504 274.411 513.207 254.393C512.06 236.952 506.772 220.32 503.829 203.133C498.841 173.711 501.335 141.914 511.461 114.262C517.048 98.9949 524.93 85.2953 534.807 73.3144C552.714 51.5769 577.207 36.0574 604.642 26.7558C620.106 21.4984 636.368 18.6169 652.729 18.4147" stroke="#2563EB" stroke-opacity="0.35" stroke-width="0.174999" stroke-miterlimit="10"/>
<path d="M18.7702 424.551C40.4193 412.975 76.3348 405.695 109.856 408.021C126.916 409.234 143.178 412.217 158.541 413.935C174.254 415.654 188.671 416.21 203.835 413.43C208.723 412.52 213.512 411.256 218.401 409.487C236.807 402.713 254.915 396.849 275.616 390.378C297.515 383.554 313.577 371.775 327.843 359.44C331.185 356.559 334.528 353.879 337.77 351.251C347.198 343.668 356.376 337.197 369.395 333.709C376.978 331.687 385.458 330.221 395.085 329.715C419.727 328.452 436.887 336.54 455.194 334.872C457.638 334.67 460.082 334.215 462.477 333.608C474.448 330.524 486.271 322.537 494.8 310.303C505.076 295.542 510.214 275.018 509.117 255.252C508.169 237.913 503.53 221.23 501.136 203.992C497.045 174.571 500.188 142.925 510.713 115.627C516.549 100.461 524.68 86.9636 534.657 75.2355C552.814 53.9024 577.356 38.7873 604.792 29.4857C620.206 24.2283 636.467 21.3468 652.729 20.9424" stroke="#2563EB" stroke-opacity="0.35" stroke-width="0.174999" stroke-miterlimit="10"/>
<path d="M20.9658 429C42.9142 419.85 78.5803 413.733 111.902 415.502C128.912 416.412 145.074 418.738 160.288 419.546C175.851 420.406 189.918 419.951 204.783 416.412C209.522 415.3 214.261 413.834 219 411.863C236.958 404.431 254.516 397.809 275.068 391.187C296.567 384.21 312.929 373.14 327.545 362.069C330.987 359.49 334.428 357.114 337.771 354.789C347.448 348.167 356.776 342.707 369.745 339.826C377.377 338.107 385.758 336.742 395.235 336.135C419.528 334.518 436.638 340.483 454.147 337.399C456.491 336.995 458.836 336.338 461.081 335.579C472.454 331.687 483.528 323.244 491.459 310.859C501.037 295.946 505.825 275.624 504.977 256.01C504.279 238.772 500.189 221.988 498.393 204.75C495.25 175.329 498.991 143.835 509.966 116.89C516.051 101.826 524.382 88.5305 534.508 77.0046C552.915 56.0759 577.507 41.3653 604.992 32.0636C620.406 26.8568 636.568 23.8742 652.829 23.3687" stroke="#2563EB" stroke-opacity="0.35" stroke-width="0.174999" stroke-miterlimit="10"/>
<path d="M23.2095 433.449C45.4571 426.675 80.8738 421.771 113.946 422.984C130.856 423.591 146.968 425.209 162.033 425.209C177.447 425.209 191.164 423.692 205.73 419.446C210.369 418.081 214.958 416.413 219.598 414.289C237.106 406.201 254.116 398.871 274.568 391.996C295.718 384.919 312.379 374.454 327.344 364.698C330.886 362.372 334.427 360.35 337.819 358.379C347.696 352.717 357.224 348.319 370.143 345.993C377.825 344.628 386.156 343.365 395.434 342.606C419.378 340.685 436.437 344.426 453.148 339.978C455.393 339.371 457.588 338.562 459.783 337.652C470.557 333.001 480.833 324.054 488.266 311.517C497.195 296.402 501.584 276.332 500.986 256.92C500.487 239.783 497.045 222.949 495.748 205.66C493.503 176.239 497.943 144.897 509.266 118.306C515.651 103.393 524.131 90.2496 534.457 78.9764C553.113 58.4522 577.755 44.146 605.29 34.8443C620.654 29.6375 636.766 26.6549 652.978 25.9471" stroke="#2563EB" stroke-opacity="0.35" stroke-width="0.174999" stroke-miterlimit="10"/>
<path d="M25.4548 437.847C48.0018 433.499 83.1691 429.708 116.042 430.365C132.902 430.719 148.914 431.629 163.779 430.719C178.994 429.809 192.412 427.281 206.679 422.327C211.218 420.71 215.707 418.839 220.197 416.564C237.257 407.819 253.718 399.73 274.07 392.704C294.871 385.475 311.831 375.718 327.095 367.175C330.737 365.153 334.328 363.383 337.87 361.766C347.996 357.064 357.623 353.728 370.543 351.959C378.275 350.897 386.555 349.785 395.684 348.925C419.278 346.651 436.239 348.268 452.201 342.404C454.346 341.595 456.441 340.635 458.486 339.523C468.662 334.063 478.19 324.66 485.024 311.972C493.254 296.654 497.295 276.787 496.946 257.628C496.646 240.541 493.853 223.657 493.105 206.368C491.808 176.896 496.846 145.756 508.568 119.519C515.203 104.708 523.932 91.8167 534.358 80.6952C553.263 60.5754 577.955 46.6736 605.49 37.4225C620.854 32.2662 636.917 29.1825 653.029 28.3737" stroke="#2563EB" stroke-opacity="0.35" stroke-width="0.174999" stroke-miterlimit="10"/>
<path d="M27.6994 442.296C50.4958 440.375 85.4635 437.746 118.087 437.847C134.847 437.898 150.81 438.15 165.525 436.33C180.59 434.561 193.709 431.022 207.626 425.31C212.066 423.49 216.455 421.418 220.795 418.94C237.406 409.538 253.319 400.742 273.521 393.462C293.923 386.132 311.183 377.033 326.846 369.753C330.587 368.034 334.278 366.568 337.92 365.305C348.245 361.564 358.072 359.289 370.942 358.126C378.674 357.418 386.954 356.407 395.883 355.396C419.129 352.818 436.039 352.262 451.203 344.983C453.248 343.972 455.244 342.859 457.139 341.596C466.717 335.327 475.446 325.469 481.731 312.629C489.264 297.11 492.955 277.495 492.855 258.488C492.755 241.502 490.611 224.567 490.361 207.228C489.962 177.756 495.699 146.767 507.82 120.884C514.704 106.174 523.633 93.4852 534.208 82.6164C553.363 62.8505 578.105 49.4036 605.69 40.1526C621.004 34.9962 637.016 31.9125 653.128 30.9015" stroke="#2563EB" stroke-opacity="0.35" stroke-width="0.174999" stroke-miterlimit="10"/>
<path d="M29.8933 446.744C52.989 447.25 87.7073 445.733 120.081 445.329C136.742 445.076 152.655 444.621 167.22 441.992C182.135 439.313 194.905 434.763 208.523 428.343C212.863 426.271 217.103 423.996 221.293 421.367C237.455 411.307 252.819 401.753 272.922 394.322C292.975 386.89 310.533 378.448 326.496 372.382C330.337 370.916 334.128 369.804 337.819 368.843C348.344 366.063 358.371 364.85 371.191 364.243C378.972 363.839 387.203 362.929 395.932 361.816C418.829 358.884 435.689 356.205 450.055 347.46C452 346.297 453.896 344.932 455.692 343.517C464.671 336.439 472.652 326.127 478.388 313.135C485.272 297.413 488.564 278.051 488.714 259.246C488.864 242.362 487.267 225.325 487.617 207.986C488.165 178.514 494.5 147.677 507.021 122.148C514.154 107.539 523.283 95.0523 534.008 84.3858C553.412 65.0243 578.204 51.9818 605.839 42.7307C621.153 37.6249 637.065 34.4402 653.127 33.2775" stroke="#2563EB" stroke-opacity="0.35" stroke-width="0.174999" stroke-miterlimit="10"/>
<path d="M32.1378 451.193C55.5328 454.125 90.0516 453.771 122.176 452.76C138.787 452.254 154.6 451.092 169.016 447.553C183.731 444.014 196.202 438.454 209.521 431.275C213.761 429 217.901 426.473 221.941 423.692C237.605 412.975 252.47 402.713 272.423 395.029C292.126 387.446 309.984 379.712 326.296 374.91C330.237 373.747 334.127 372.938 337.919 372.281C348.693 370.461 358.819 369.955 371.639 370.259C379.471 370.41 387.602 369.399 396.182 368.136C418.729 364.9 435.489 359.997 449.107 349.886C450.953 348.521 452.699 347.005 454.395 345.438C462.775 337.551 470.008 326.784 475.146 313.64C481.331 297.716 484.274 278.557 484.673 260.004C485.023 243.221 484.075 226.084 484.923 208.744C486.369 179.272 493.403 148.587 506.273 123.362C513.705 108.853 522.983 96.6195 533.858 86.1552C553.511 67.1981 578.353 54.5601 605.988 45.3596C621.252 40.2538 637.165 37.069 653.127 35.7546" stroke="#2563EB" stroke-opacity="0.35" stroke-width="0.174999" stroke-miterlimit="10"/>
<path d="M34.3841 455.641C58.0783 461 92.3477 461.707 124.223 460.241C140.734 459.382 156.547 457.562 170.763 453.215C185.329 448.766 197.45 442.194 210.47 434.308C214.61 431.78 218.601 429.101 222.542 426.118C237.756 414.694 252.122 403.774 271.925 395.888C291.23 388.204 309.437 381.178 326.098 377.538C330.138 376.678 334.129 376.173 338.02 375.87C348.994 375.01 359.32 375.971 372.14 376.426C380.021 376.729 388.102 375.971 396.482 374.656C418.68 371.067 435.391 364.04 448.211 352.514C449.957 350.947 451.603 349.279 453.149 347.56C460.931 338.916 467.366 327.643 471.955 314.347C477.492 298.221 480.036 279.315 480.634 260.914C481.233 244.181 480.834 227.044 482.281 209.603C484.575 180.131 492.307 149.598 505.626 124.726C513.308 110.319 522.835 98.2872 533.809 88.0757C553.713 69.523 578.554 57.2388 606.289 48.0889C621.553 43.0336 637.366 39.7478 653.328 38.2817" stroke="#2563EB" stroke-opacity="0.35" stroke-width="0.174999" stroke-miterlimit="10"/>
<path d="M36.5788 460.09C60.5724 467.875 94.5924 469.745 126.268 467.672C142.729 466.56 158.442 464.033 172.509 458.775C186.925 453.467 198.747 445.884 211.418 437.189C215.458 434.46 219.349 431.527 223.14 428.393C237.905 416.311 251.723 404.684 271.426 396.545C290.382 388.76 308.888 382.391 325.848 380.015C329.989 379.459 334.079 379.307 338.07 379.257C349.243 379.105 359.769 381.38 372.539 382.391C380.47 382.997 388.501 382.391 396.682 380.925C418.53 376.982 435.141 367.781 447.213 354.89C448.859 353.121 450.405 351.251 451.852 349.38C458.985 339.927 464.722 328.199 468.762 314.752C473.601 298.474 475.796 279.77 476.644 261.571C477.442 244.939 477.691 227.701 479.637 210.26C482.879 180.788 491.259 150.407 504.927 125.889C512.858 111.633 522.586 99.7532 533.709 89.7438C553.812 71.5956 578.753 59.7158 606.538 50.5658C621.752 45.5612 637.515 42.2247 653.428 40.6071" stroke="#2563EB" stroke-opacity="0.35" stroke-width="0.174999" stroke-miterlimit="10"/>
<path d="M38.8225 464.538C63.0655 474.699 96.8859 477.783 128.312 475.154C144.674 473.739 160.337 470.504 174.254 464.437C188.471 458.219 199.993 449.625 212.364 440.223C216.305 437.24 220.046 434.106 223.738 430.82C238.054 418.081 251.323 405.696 270.877 397.405C289.483 389.468 308.289 383.857 325.598 382.644C329.838 382.34 334.028 382.492 338.069 382.846C349.492 383.857 360.117 386.991 372.887 388.558C380.868 389.519 388.849 389.013 396.83 387.396C418.33 383.099 434.891 371.775 446.164 357.469C447.711 355.497 449.157 353.475 450.454 351.453C456.989 341.191 461.977 329.008 465.419 315.409C469.559 298.929 471.405 280.427 472.502 262.481C473.5 245.951 474.398 228.662 476.892 211.171C481.032 181.699 490.111 151.519 504.128 127.304C512.359 113.15 522.235 101.472 533.559 91.7157C553.911 73.9719 578.902 62.4965 606.687 53.3465C621.901 48.3419 637.614 44.9549 653.427 43.1855" stroke="#2563EB" stroke-opacity="0.35" stroke-width="0.174999" stroke-miterlimit="10"/>
<path d="M41.0679 468.937C65.6101 481.524 99.1812 485.72 130.358 482.586C146.62 480.867 162.233 476.974 176 469.998C190.067 462.921 201.291 453.316 213.313 443.155C217.154 439.97 220.745 436.583 224.337 433.146C238.154 419.699 250.924 406.656 270.378 398.113C288.635 390.075 307.691 384.919 325.349 385.171C329.689 385.222 333.979 385.576 338.119 386.284C349.742 388.255 360.566 392.502 373.286 394.574C381.268 395.889 389.199 395.434 397.031 393.715C418.181 389.115 434.642 375.567 445.167 359.895C446.614 357.772 447.911 355.548 449.108 353.324C455.044 342.253 459.234 329.615 462.127 315.864C465.619 299.182 467.066 280.933 468.413 263.138C469.66 246.709 471.106 229.319 474.199 211.828C479.287 182.356 489.014 152.328 503.43 128.467C511.91 114.414 522.036 102.989 533.46 93.384C554.061 76.0445 579.102 64.9736 606.937 55.8742C622.101 50.9201 637.764 47.4825 653.577 45.511" stroke="#2563EB" stroke-opacity="0.35" stroke-width="0.174999" stroke-miterlimit="10"/>
<path d="M43.3124 473.385C68.154 488.399 101.476 493.758 132.453 490.017C148.665 488.045 164.178 483.395 177.796 475.609C191.713 467.622 202.588 457.006 214.31 446.138C218.002 442.7 221.543 439.161 224.985 435.522C238.354 421.418 250.625 407.667 269.879 398.922C287.787 390.783 307.142 386.536 325.149 387.8C329.589 388.104 333.929 388.811 338.219 389.873C350.091 392.754 361.015 398.113 373.735 400.742C381.766 402.41 389.648 402.056 397.28 400.236C418.081 395.282 434.442 379.611 444.219 362.524C445.566 360.199 446.763 357.823 447.811 355.447C453.148 343.567 456.59 330.474 458.885 316.572C461.678 299.688 462.826 281.691 464.372 264.099C465.868 247.72 467.914 230.279 471.505 212.788C477.491 183.316 487.917 153.491 502.682 129.933C511.461 116.031 521.737 104.758 533.31 95.4061C554.161 78.4711 579.252 67.8046 607.136 58.7052C622.251 53.751 637.864 50.3135 653.627 48.1903" stroke="#2563EB" stroke-opacity="0.35" stroke-width="0.174999" stroke-miterlimit="10"/>
<path d="M45.5072 477.834C70.6481 495.274 103.72 501.795 134.448 497.498C150.56 495.223 166.024 489.915 179.492 481.22C193.21 472.374 203.785 460.747 215.208 449.12C218.8 445.48 222.192 441.689 225.534 437.897C238.403 423.136 250.176 408.729 269.331 399.73C286.889 391.541 306.493 387.952 324.85 390.378C329.389 390.985 333.829 391.996 338.169 393.361C350.24 397.152 361.364 403.673 374.034 406.808C382.115 408.83 389.947 408.526 397.38 406.605C417.831 401.247 434.093 383.452 443.122 365.001C444.369 362.473 445.466 359.895 446.414 357.368C451.153 344.729 453.847 331.131 455.593 317.077C457.738 299.991 458.486 282.196 460.282 264.857C461.978 248.579 464.671 231.088 468.811 213.546C475.745 184.024 486.819 154.4 501.934 131.197C510.962 117.396 521.438 106.325 533.16 97.1752C554.26 80.6446 579.401 70.3825 607.286 61.2831C622.4 56.3796 637.964 52.8409 653.627 50.566" stroke="#2563EB" stroke-opacity="0.35" stroke-width="0.174999" stroke-miterlimit="10"/>
<path d="M47.7526 482.282C86.5613 512.563 142.729 514.535 181.239 486.832C194.807 477.075 205.033 464.437 216.156 452.103C233.266 433.095 244.889 412.065 268.783 400.489C290.232 390.075 315.922 388.205 338.219 396.849C350.54 401.601 361.764 409.184 374.434 412.874C408.105 422.631 436.089 388.66 445.068 359.39C454.246 329.564 452.451 297.008 456.192 265.716C461.33 222.393 476.394 169.01 501.186 132.511C527.275 94.1422 564.038 78.0665 607.486 64.013C622.55 59.1095 638.064 55.5708 653.727 53.1443" stroke="#2563EB" stroke-opacity="0.35" stroke-width="0.174999" stroke-miterlimit="10"/>
</svg>
